<svg width="17" height="17" viewBox="0 0 17 17" fill="none" xmlns="http://www.w3.org/2000/svg">
<g id="Icon/16px/Facebook" clip-path="url(#clip0_6557_1691)">
<path id="Vector" d="M9.18106 4.31794C9.18106 4.48169 9.18106 5.01541 9.18106 5.77366H11.7881L11.5054 8.09763H9.18106C9.18106 11.6816 9.18106 16.4843 9.18106 16.4843H6.09587C6.09587 16.4843 6.09587 11.7452 6.09587 8.09763H4.48828V5.77366H6.09587C6.09587 4.85204 6.09587 4.19669 6.09587 4.01422C6.09587 3.14485 6.03037 2.73235 6.39978 2.05866C6.76937 1.385 7.81187 0.494567 9.61497 0.516005C11.4185 0.538224 12.1787 0.711724 12.1787 0.711724L11.7881 3.1885C11.7881 3.1885 10.6364 2.88441 10.0711 2.99279C9.50659 3.10119 9.18106 3.44894 9.18106 4.31794Z" fill="white"/>
</g>
<defs>
<clipPath id="clip0_6557_1691">
<rect width="16" height="16" fill="white" transform="translate(0.333496 0.5)"/>
</clipPath>
</defs>
</svg>
