<svg width="17" height="17" viewBox="0 0 17 17" fill="none" xmlns="http://www.w3.org/2000/svg">
<g id="Icon/16px/Tiktok">
<path id="Vector" d="M12.5504 3.858C11.891 3.09144 11.5456 2.10104 11.5731 1.09272L9.10925 1.0332C9.10925 1.0332 9.10925 1.13832 9.10925 1.28008V11.1602C9.14365 14.286 4.20509 14.2102 4.59581 10.7551C4.83469 9.38136 6.31085 8.53592 7.62253 9.01384V6.49992C4.76685 6.00264 2.06061 8.2756 2.08909 11.1713C2.33869 17.4513 11.3461 17.4521 11.596 11.1713C11.5331 10.9465 11.5683 6.76152 11.5593 6.40856C12.6797 7.10568 13.9832 7.45416 15.3033 7.40952V4.8132C14.0829 4.8132 13.1515 4.48872 12.5504 3.858Z" fill="white"/>
</g>
</svg>
