<svg width="16" height="17" viewBox="0 0 16 17" fill="none" xmlns="http://www.w3.org/2000/svg">
<g id="Icon/16px/Twitter">
<path id="Twitter" fill-rule="evenodd" clip-rule="evenodd" d="M16 3.41193C15.4121 3.67965 14.7791 3.8607 14.1152 3.9416C14.7932 3.52556 15.3135 2.86588 15.5586 2.08004C14.9238 2.46525 14.2222 2.7455 13.4728 2.89573C12.8755 2.24183 12.0218 1.8335 11.0771 1.8335C9.26548 1.8335 7.79574 3.34066 7.79574 5.19933C7.79574 5.4632 7.82391 5.71938 7.88026 5.96592C5.15208 5.82531 2.73381 4.48668 1.11381 2.44792C0.831132 2.94677 0.669596 3.52556 0.669596 4.14191C0.669596 5.30912 1.24905 6.33958 2.12995 6.9434C1.59277 6.92703 1.08563 6.77391 0.642365 6.52352V6.56493C0.642365 8.19632 1.77402 9.5571 3.27663 9.86527C3.00147 9.94424 2.71128 9.98373 2.41169 9.98373C2.20039 9.98373 1.99378 9.96351 1.79374 9.92402C2.21166 11.2607 3.42313 12.2344 4.86001 12.2604C3.7368 13.1637 2.32059 13.702 0.783234 13.702C0.518398 13.702 0.256383 13.6866 0 13.6558C1.45284 14.6092 3.17896 15.1668 5.03187 15.1668C11.0705 15.1668 14.3715 10.0386 14.3715 5.59033C14.3715 5.44394 14.3687 5.29756 14.3631 5.15407C15.0045 4.67929 15.5614 4.08702 16 3.41193Z" fill="white"/>
</g>
</svg>
