<svg width="16" height="17" viewBox="0 0 16 17" fill="none" xmlns="http://www.w3.org/2000/svg">
<g id="Icon/16px/Instagram" clip-path="url(#clip0_6557_1695)">
<path id="Vector" d="M8.00016 15.1666C6.57067 15.1666 5.54198 15.1659 4.73996 15.0881C3.94713 15.0112 3.43996 14.8636 3.03521 14.6092C2.57261 14.3186 2.18144 13.9274 1.89077 13.4649C1.63653 13.0601 1.48875 12.5529 1.41198 11.7601C1.3342 10.9581 1.3335 9.92941 1.3335 8.49992C1.3335 7.07042 1.3342 6.04174 1.41198 5.23972C1.48875 4.44689 1.63653 3.93972 1.89077 3.53497C2.18143 3.07236 2.5726 2.68119 3.03521 2.39052C3.43996 2.13628 3.94713 1.9885 4.73996 1.91174C5.54188 1.83396 6.57057 1.83325 8.00016 1.83325C9.42966 1.83325 10.4583 1.83396 11.2604 1.91174C12.0532 1.9885 12.5604 2.13628 12.9651 2.39052C13.4277 2.6812 13.8188 3.07237 14.1095 3.53497C14.3638 3.93972 14.5115 4.44689 14.5883 5.23972C14.6661 6.04174 14.6668 7.07042 14.6668 8.49992C14.6668 9.92941 14.6661 10.9581 14.5883 11.7601C14.5115 12.5529 14.3638 13.0601 14.1095 13.4649C13.8188 13.9274 13.4277 14.3186 12.9651 14.6092C12.5604 14.8636 12.0532 15.0112 11.2604 15.0881C10.4583 15.1659 9.42966 15.1666 8.00016 15.1666Z" fill="white" stroke="white" stroke-width="2"/>
<path id="Vector_2" d="M8.00016 11.8333C9.47292 11.8333 10.6668 10.6394 10.6668 9.16667C10.6668 7.69391 9.47292 6.5 8.00016 6.5C6.5274 6.5 5.3335 7.69391 5.3335 9.16667C5.3335 10.6394 6.5274 11.8333 8.00016 11.8333Z" fill="white" stroke="black" stroke-width="2"/>
<path id="Vector_3" d="M11.25 6C11.6642 6 12 5.66421 12 5.25C12 4.83579 11.6642 4.5 11.25 4.5C10.8358 4.5 10.5 4.83579 10.5 5.25C10.5 5.66421 10.8358 6 11.25 6Z" fill="black"/>
</g>
<defs>
<clipPath id="clip0_6557_1695">
<rect width="16" height="16" fill="white" transform="translate(0 0.5)"/>
</clipPath>
</defs>
</svg>
